<svg xmlns="http://www.w3.org/2000/svg" viewBox="0 0 48 22" shape-rendering="crispEdges"><rect x="0" y="0" width="48" height="22" fill="#191d28"/><rect x="1" y="0" width="7" height="1" fill="#8792a6"/><rect x="9" y="0" width="3" height="1" fill="#8792a6"/><rect x="16" y="0" width="5" height="1" fill="#8792a6"/><rect x="22" y="0" width="1" height="1" fill="#3a4252"/><rect x="23" y="0" width="1" height="1" fill="#c9ced9"/><rect x="24" y="0" width="2" height="1" fill="#3a4252"/><rect x="27" y="0" width="4" height="1" fill="#8792a6"/><rect x="35" y="0" width="6" height="1" fill="#8792a6"/><rect x="42" y="0" width="5" height="1" fill="#8792a6"/><rect x="1" y="1" width="7" height="1" fill="#3b536e"/><rect x="9" y="1" width="3" height="1" fill="#5a4531"/><rect x="16" y="1" width="5" height="1" fill="#5a4531"/><rect x="22" y="1" width="1" height="1" fill="#3a4252"/><rect x="23" y="1" width="1" height="1" fill="#c9ced9"/><rect x="24" y="1" width="2" height="1" fill="#3a4252"/><rect x="27" y="1" width="4" height="1" fill="#3b536e"/><rect x="35" y="1" width="6" height="1" fill="#5a4531"/><rect x="42" y="1" width="5" height="1" fill="#3b536e"/><rect x="1" y="2" width="7" height="1" fill="#3b536e"/><rect x="9" y="2" width="3" height="1" fill="#5a4531"/><rect x="16" y="2" width="5" height="1" fill="#5a4531"/><rect x="22" y="2" width="4" height="1" fill="#3a4252"/><rect x="27" y="2" width="4" height="1" fill="#3b536e"/><rect x="35" y="2" width="6" height="1" fill="#5a4531"/><rect x="42" y="2" width="5" height="1" fill="#3b536e"/><rect x="2" y="3" width="20" height="1" fill="#3a4252"/><rect x="22" y="3" width="1" height="1" fill="#4e576b"/><rect x="23" y="3" width="1" height="1" fill="#3a4252"/><rect x="24" y="3" width="1" height="1" fill="#4e576b"/><rect x="25" y="3" width="21" height="1" fill="#3a4252"/><rect x="2" y="4" width="1" height="1" fill="#3a4252"/><rect x="3" y="4" width="2" height="1" fill="#c9ced9"/><rect x="5" y="4" width="1" height="1" fill="#3a4252"/><rect x="6" y="4" width="2" height="1" fill="#c9ced9"/><rect x="8" y="4" width="1" height="1" fill="#3a4252"/><rect x="9" y="4" width="2" height="1" fill="#c9ced9"/><rect x="11" y="4" width="1" height="1" fill="#3a4252"/><rect x="12" y="4" width="1" height="1" fill="#c9ced9"/><rect x="13" y="4" width="3" height="1" fill="#3a4252"/><rect x="16" y="4" width="1" height="1" fill="#c9ced9"/><rect x="17" y="4" width="1" height="1" fill="#3a4252"/><rect x="18" y="4" width="2" height="1" fill="#c9ced9"/><rect x="20" y="4" width="1" height="1" fill="#3a4252"/><rect x="21" y="4" width="1" height="1" fill="#c9ced9"/><rect x="22" y="4" width="1" height="1" fill="#4e576b"/><rect x="23" y="4" width="1" height="1" fill="#3a4252"/><rect x="24" y="4" width="1" height="1" fill="#4e576b"/><rect x="25" y="4" width="2" height="1" fill="#3a4252"/><rect x="27" y="4" width="2" height="1" fill="#c9ced9"/><rect x="29" y="4" width="1" height="1" fill="#3a4252"/><rect x="30" y="4" width="1" height="1" fill="#c9ced9"/><rect x="31" y="4" width="3" height="1" fill="#3a4252"/><rect x="34" y="4" width="1" height="1" fill="#c9ced9"/><rect x="35" y="4" width="1" height="1" fill="#3a4252"/><rect x="36" y="4" width="2" height="1" fill="#c9ced9"/><rect x="38" y="4" width="1" height="1" fill="#3a4252"/><rect x="39" y="4" width="2" height="1" fill="#c9ced9"/><rect x="41" y="4" width="1" height="1" fill="#3a4252"/><rect x="42" y="4" width="2" height="1" fill="#c9ced9"/><rect x="44" y="4" width="2" height="1" fill="#3a4252"/><rect x="2" y="5" width="20" height="1" fill="#3a4252"/><rect x="22" y="5" width="1" height="1" fill="#4e576b"/><rect x="23" y="5" width="1" height="1" fill="#3a4252"/><rect x="24" y="5" width="1" height="1" fill="#4e576b"/><rect x="25" y="5" width="21" height="1" fill="#3a4252"/><rect x="1" y="6" width="5" height="1" fill="#8792a6"/><rect x="7" y="6" width="5" height="1" fill="#8792a6"/><rect x="13" y="6" width="3" height="1" fill="#3a4252"/><rect x="17" y="6" width="5" height="1" fill="#8792a6"/><rect x="22" y="6" width="1" height="1" fill="#3a4252"/><rect x="23" y="6" width="1" height="1" fill="#c9ced9"/><rect x="24" y="6" width="2" height="1" fill="#3a4252"/><rect x="26" y="6" width="4" height="1" fill="#8792a6"/><rect x="31" y="6" width="3" height="1" fill="#3a4252"/><rect x="35" y="6" width="4" height="1" fill="#8792a6"/><rect x="40" y="6" width="6" height="1" fill="#8792a6"/><rect x="1" y="7" width="5" height="1" fill="#5a4531"/><rect x="7" y="7" width="5" height="1" fill="#3b536e"/><rect x="13" y="7" width="3" height="1" fill="#3a4252"/><rect x="17" y="7" width="5" height="1" fill="#3b536e"/><rect x="22" y="7" width="1" height="1" fill="#3a4252"/><rect x="23" y="7" width="1" height="1" fill="#c9ced9"/><rect x="24" y="7" width="2" height="1" fill="#3a4252"/><rect x="26" y="7" width="4" height="1" fill="#5a4531"/><rect x="31" y="7" width="3" height="1" fill="#3a4252"/><rect x="35" y="7" width="4" height="1" fill="#3b536e"/><rect x="40" y="7" width="6" height="1" fill="#5a4531"/><rect x="1" y="8" width="5" height="1" fill="#5a4531"/><rect x="7" y="8" width="5" height="1" fill="#3b536e"/><rect x="13" y="8" width="3" height="1" fill="#3a4252"/><rect x="17" y="8" width="5" height="1" fill="#3b536e"/><rect x="22" y="8" width="4" height="1" fill="#3a4252"/><rect x="26" y="8" width="4" height="1" fill="#5a4531"/><rect x="31" y="8" width="3" height="1" fill="#3a4252"/><rect x="35" y="8" width="4" height="1" fill="#3b536e"/><rect x="40" y="8" width="6" height="1" fill="#5a4531"/><rect x="1" y="9" width="5" height="1" fill="#5a4531"/><rect x="7" y="9" width="5" height="1" fill="#3b536e"/><rect x="13" y="9" width="3" height="1" fill="#3a4252"/><rect x="17" y="9" width="5" height="1" fill="#3b536e"/><rect x="22" y="9" width="1" height="1" fill="#3a4252"/><rect x="23" y="9" width="1" height="1" fill="#c9ced9"/><rect x="24" y="9" width="2" height="1" fill="#3a4252"/><rect x="26" y="9" width="4" height="1" fill="#5a4531"/><rect x="31" y="9" width="3" height="1" fill="#3a4252"/><rect x="35" y="9" width="4" height="1" fill="#3b536e"/><rect x="40" y="9" width="6" height="1" fill="#5a4531"/><rect x="13" y="10" width="3" height="1" fill="#3a4252"/><rect x="22" y="10" width="1" height="1" fill="#3a4252"/><rect x="23" y="10" width="1" height="1" fill="#c9ced9"/><rect x="24" y="10" width="2" height="1" fill="#3a4252"/><rect x="31" y="10" width="3" height="1" fill="#3a4252"/><rect x="1" y="11" width="5" height="1" fill="#8792a6"/><rect x="13" y="11" width="2" height="1" fill="#3a4252"/><rect x="15" y="11" width="1" height="1" fill="#c9ced9"/><rect x="16" y="11" width="2" height="1" fill="#3a4252"/><rect x="18" y="11" width="1" height="1" fill="#c9ced9"/><rect x="19" y="11" width="2" height="1" fill="#3a4252"/><rect x="21" y="11" width="1" height="1" fill="#c9ced9"/><rect x="22" y="11" width="5" height="1" fill="#3a4252"/><rect x="27" y="11" width="1" height="1" fill="#c9ced9"/><rect x="28" y="11" width="2" height="1" fill="#3a4252"/><rect x="30" y="11" width="1" height="1" fill="#c9ced9"/><rect x="31" y="11" width="3" height="1" fill="#3a4252"/><rect x="1" y="12" width="5" height="1" fill="#3b536e"/><rect x="7" y="12" width="5" height="1" fill="#8792a6"/><rect x="13" y="12" width="21" height="1" fill="#3a4252"/><rect x="1" y="13" width="5" height="1" fill="#3b536e"/><rect x="7" y="13" width="5" height="1" fill="#5a4531"/><rect x="13" y="13" width="3" height="1" fill="#3a4252"/><rect x="17" y="13" width="4" height="1" fill="#8792a6"/><rect x="22" y="13" width="1" height="1" fill="#3a4252"/><rect x="23" y="13" width="1" height="1" fill="#c9ced9"/><rect x="24" y="13" width="2" height="1" fill="#3a4252"/><rect x="27" y="13" width="4" height="1" fill="#8792a6"/><rect x="31" y="13" width="3" height="1" fill="#3a4252"/><rect x="35" y="13" width="11" height="1" fill="#2b4736"/><rect x="13" y="14" width="3" height="1" fill="#3a4252"/><rect x="17" y="14" width="4" height="1" fill="#5a4531"/><rect x="22" y="14" width="4" height="1" fill="#3a4252"/><rect x="27" y="14" width="4" height="1" fill="#3b536e"/><rect x="31" y="14" width="3" height="1" fill="#3a4252"/><rect x="35" y="14" width="11" height="1" fill="#2b4736"/><rect x="2" y="15" width="9" height="1" fill="#8792a6"/><rect x="13" y="15" width="2" height="1" fill="#3a4252"/><rect x="15" y="15" width="1" height="1" fill="#c9ced9"/><rect x="16" y="15" width="2" height="1" fill="#3a4252"/><rect x="18" y="15" width="1" height="1" fill="#c9ced9"/><rect x="19" y="15" width="2" height="1" fill="#3a4252"/><rect x="21" y="15" width="1" height="1" fill="#c9ced9"/><rect x="22" y="15" width="5" height="1" fill="#3a4252"/><rect x="27" y="15" width="1" height="1" fill="#c9ced9"/><rect x="28" y="15" width="2" height="1" fill="#3a4252"/><rect x="30" y="15" width="1" height="1" fill="#c9ced9"/><rect x="31" y="15" width="3" height="1" fill="#3a4252"/><rect x="35" y="15" width="11" height="1" fill="#2b4736"/><rect x="2" y="16" width="9" height="1" fill="#5a4531"/><rect x="13" y="16" width="21" height="1" fill="#3a4252"/><rect x="35" y="16" width="11" height="1" fill="#2b4736"/><rect x="2" y="17" width="9" height="1" fill="#5a4531"/><rect x="13" y="17" width="3" height="1" fill="#3a4252"/><rect x="22" y="17" width="4" height="1" fill="#3a4252"/><rect x="31" y="17" width="3" height="1" fill="#3a4252"/><rect x="35" y="17" width="11" height="1" fill="#2b4736"/><rect x="2" y="18" width="20" height="1" fill="#3a4252"/><rect x="22" y="18" width="1" height="1" fill="#4e576b"/><rect x="23" y="18" width="1" height="1" fill="#3a4252"/><rect x="24" y="18" width="1" height="1" fill="#4e576b"/><rect x="25" y="18" width="21" height="1" fill="#3a4252"/><rect x="2" y="19" width="18" height="1" fill="#3a4252"/><rect x="20" y="19" width="8" height="1" fill="#4e576b"/><rect x="28" y="19" width="18" height="1" fill="#3a4252"/><rect x="1" y="20" width="8" height="1" fill="#8792a6"/><rect x="10" y="20" width="9" height="1" fill="#8792a6"/><rect x="20" y="20" width="1" height="1" fill="#4e576b"/><rect x="21" y="20" width="6" height="1" fill="#3a4252"/><rect x="27" y="20" width="1" height="1" fill="#4e576b"/><rect x="28" y="20" width="4" height="1" fill="#8792a6"/><rect x="34" y="20" width="7" height="1" fill="#8792a6"/><rect x="42" y="20" width="5" height="1" fill="#8792a6"/><rect x="1" y="21" width="8" height="1" fill="#3b536e"/><rect x="10" y="21" width="6" height="1" fill="#5a4531"/><rect x="16" y="21" width="3" height="1" fill="#3b536e"/><rect x="20" y="21" width="1" height="1" fill="#4e576b"/><rect x="21" y="21" width="2" height="1" fill="#3a4252"/><rect x="23" y="21" width="1" height="1" fill="#c9ced9"/><rect x="24" y="21" width="3" height="1" fill="#3a4252"/><rect x="27" y="21" width="1" height="1" fill="#4e576b"/><rect x="28" y="21" width="4" height="1" fill="#5a4531"/><rect x="34" y="21" width="7" height="1" fill="#3b536e"/><rect x="42" y="21" width="5" height="1" fill="#5a4531"/></svg>