<svg xmlns="http://www.w3.org/2000/svg" viewBox="0 0 16 7" shape-rendering="crispEdges"><rect x="2" y="0" width="12" height="1" fill="#33363f"/><rect x="1" y="1" width="1" height="1" fill="#33363f"/><rect x="2" y="1" width="12" height="1" fill="#3b6fd4"/><rect x="14" y="1" width="1" height="1" fill="#33363f"/><rect x="0" y="2" width="1" height="2" fill="#33363f"/><rect x="1" y="2" width="14" height="2" fill="#3b6fd4"/><rect x="15" y="2" width="1" height="2" fill="#33363f"/><rect x="1" y="4" width="1" height="1" fill="#33363f"/><rect x="2" y="4" width="12" height="1" fill="#3b6fd4"/><rect x="14" y="4" width="1" height="1" fill="#33363f"/><rect x="2" y="5" width="12" height="1" fill="#33363f"/><rect x="7" y="2" width="1" height="1" fill="#ffffff"/><rect x="8" y="3" width="1" height="1" fill="#ffffff"/><rect x="7" y="4" width="1" height="1" fill="#ffffff"/><rect x="4" y="6" width="2" height="1" fill="#3fae7a"/><rect x="10" y="6" width="2" height="1" fill="#3fae7a"/></svg>
