<svg xmlns="http://www.w3.org/2000/svg" viewBox="0 0 12 11" shape-rendering="crispEdges"><rect x="2" y="0" width="1" height="1" fill="#5adcb4"/><rect x="2" y="1" width="1" height="3" fill="#79808d"/><rect x="9" y="0" width="1" height="1" fill="#5adcb4"/><rect x="9" y="1" width="1" height="3" fill="#79808d"/><rect x="1" y="4" width="10" height="1" fill="#10131f"/><rect x="0" y="5" width="1" height="1" fill="#10131f"/><rect x="1" y="5" width="10" height="1" fill="#3b536e"/><rect x="11" y="5" width="1" height="1" fill="#10131f"/><rect x="0" y="6" width="1" height="1" fill="#10131f"/><rect x="1" y="6" width="10" height="1" fill="#2b3153"/><rect x="11" y="6" width="1" height="1" fill="#10131f"/><rect x="0" y="7" width="1" height="1" fill="#10131f"/><rect x="1" y="7" width="1" height="1" fill="#232946"/><rect x="2" y="7" width="1" height="1" fill="#5adcb4"/><rect x="3" y="7" width="1" height="1" fill="#232946"/><rect x="4" y="7" width="1" height="1" fill="#5adcb4"/><rect x="5" y="7" width="1" height="1" fill="#232946"/><rect x="6" y="7" width="1" height="1" fill="#5adcb4"/><rect x="7" y="7" width="4" height="1" fill="#232946"/><rect x="11" y="7" width="1" height="1" fill="#10131f"/><rect x="0" y="8" width="1" height="1" fill="#10131f"/><rect x="1" y="8" width="1" height="1" fill="#2b3153"/><rect x="2" y="8" width="2" height="1" fill="#10131f"/><rect x="4" y="8" width="1" height="1" fill="#2b3153"/><rect x="5" y="8" width="2" height="1" fill="#10131f"/><rect x="7" y="8" width="1" height="1" fill="#2b3153"/><rect x="8" y="8" width="2" height="1" fill="#10131f"/><rect x="10" y="8" width="1" height="1" fill="#2b3153"/><rect x="11" y="8" width="1" height="1" fill="#10131f"/><rect x="1" y="9" width="10" height="1" fill="#10131f"/><rect x="2" y="10" width="2" height="1" fill="#10131f"/><rect x="8" y="10" width="2" height="1" fill="#10131f"/></svg>