<svg xmlns="http://www.w3.org/2000/svg" viewBox="0 0 40 22" shape-rendering="crispEdges"><rect x="0" y="0" width="40" height="1" fill="#10131c"/><rect x="0" y="1" width="1" height="1" fill="#10131c"/><rect x="1" y="1" width="38" height="1" fill="#35529e"/><rect x="39" y="1" width="1" height="1" fill="#10131c"/><rect x="0" y="2" width="1" height="1" fill="#10131c"/><rect x="1" y="2" width="2" height="1" fill="#35529e"/><rect x="3" y="2" width="5" height="1" fill="#ffffff"/><rect x="8" y="2" width="2" height="1" fill="#35529e"/><rect x="10" y="2" width="20" height="1" fill="#e9e6db"/><rect x="30" y="2" width="9" height="1" fill="#35529e"/><rect x="39" y="2" width="1" height="1" fill="#10131c"/><rect x="0" y="3" width="1" height="1" fill="#10131c"/><rect x="1" y="3" width="2" height="1" fill="#35529e"/><rect x="3" y="3" width="1" height="1" fill="#ffffff"/><rect x="4" y="3" width="3" height="1" fill="#35529e"/><rect x="7" y="3" width="1" height="1" fill="#ffffff"/><rect x="8" y="3" width="31" height="1" fill="#35529e"/><rect x="39" y="3" width="1" height="1" fill="#10131c"/><rect x="0" y="4" width="1" height="1" fill="#10131c"/><rect x="1" y="4" width="2" height="1" fill="#35529e"/><rect x="3" y="4" width="1" height="1" fill="#ffffff"/><rect x="4" y="4" width="3" height="1" fill="#35529e"/><rect x="7" y="4" width="1" height="1" fill="#ffffff"/><rect x="8" y="4" width="2" height="1" fill="#35529e"/><rect x="10" y="4" width="15" height="1" fill="#e9e6db"/><rect x="25" y="4" width="14" height="1" fill="#35529e"/><rect x="39" y="4" width="1" height="1" fill="#10131c"/><rect x="0" y="5" width="1" height="1" fill="#10131c"/><rect x="1" y="5" width="2" height="1" fill="#35529e"/><rect x="3" y="5" width="5" height="1" fill="#ffffff"/><rect x="8" y="5" width="31" height="1" fill="#35529e"/><rect x="39" y="5" width="1" height="1" fill="#10131c"/><rect x="0" y="6" width="1" height="1" fill="#10131c"/><rect x="1" y="6" width="38" height="1" fill="#35529e"/><rect x="39" y="6" width="1" height="1" fill="#10131c"/><rect x="0" y="7" width="1" height="1" fill="#10131c"/><rect x="1" y="7" width="1" height="1" fill="#ffffff"/><rect x="2" y="7" width="3" height="1" fill="#d5d1c4"/><rect x="5" y="7" width="30" height="1" fill="#ffffff"/><rect x="35" y="7" width="3" height="1" fill="#d5d1c4"/><rect x="38" y="7" width="1" height="1" fill="#ffffff"/><rect x="39" y="7" width="1" height="1" fill="#10131c"/><rect x="0" y="8" width="1" height="1" fill="#10131c"/><rect x="1" y="8" width="1" height="1" fill="#ffffff"/><rect x="2" y="8" width="1" height="1" fill="#d5d1c4"/><rect x="3" y="8" width="34" height="1" fill="#ffffff"/><rect x="37" y="8" width="1" height="1" fill="#d5d1c4"/><rect x="38" y="8" width="1" height="1" fill="#ffffff"/><rect x="39" y="8" width="1" height="1" fill="#10131c"/><rect x="0" y="9" width="1" height="1" fill="#10131c"/><rect x="1" y="9" width="1" height="1" fill="#ffffff"/><rect x="2" y="9" width="1" height="1" fill="#d5d1c4"/><rect x="3" y="9" width="14" height="1" fill="#10131c"/><rect x="17" y="9" width="20" height="1" fill="#ffffff"/><rect x="37" y="9" width="1" height="1" fill="#d5d1c4"/><rect x="38" y="9" width="1" height="1" fill="#ffffff"/><rect x="39" y="9" width="1" height="1" fill="#10131c"/><rect x="0" y="10" width="1" height="1" fill="#10131c"/><rect x="1" y="10" width="2" height="1" fill="#ffffff"/><rect x="3" y="10" width="1" height="1" fill="#10131c"/><rect x="4" y="10" width="8" height="1" fill="#ffffff"/><rect x="12" y="10" width="2" height="1" fill="#e2574a"/><rect x="14" y="10" width="2" height="1" fill="#ffffff"/><rect x="16" y="10" width="1" height="1" fill="#10131c"/><rect x="17" y="10" width="2" height="1" fill="#ffffff"/><rect x="19" y="10" width="17" height="1" fill="#6d7484"/><rect x="36" y="10" width="3" height="1" fill="#ffffff"/><rect x="39" y="10" width="1" height="1" fill="#10131c"/><rect x="0" y="11" width="1" height="1" fill="#10131c"/><rect x="1" y="11" width="2" height="1" fill="#ffffff"/><rect x="3" y="11" width="1" height="1" fill="#10131c"/><rect x="4" y="11" width="8" height="1" fill="#ffffff"/><rect x="12" y="11" width="2" height="1" fill="#e2574a"/><rect x="14" y="11" width="2" height="1" fill="#ffffff"/><rect x="16" y="11" width="1" height="1" fill="#10131c"/><rect x="17" y="11" width="22" height="1" fill="#ffffff"/><rect x="39" y="11" width="1" height="1" fill="#10131c"/><rect x="0" y="12" width="1" height="1" fill="#10131c"/><rect x="1" y="12" width="2" height="1" fill="#ffffff"/><rect x="3" y="12" width="1" height="1" fill="#10131c"/><rect x="4" y="12" width="5" height="1" fill="#ffffff"/><rect x="9" y="12" width="1" height="1" fill="#35529e"/><rect x="10" y="12" width="6" height="1" fill="#ffffff"/><rect x="16" y="12" width="1" height="1" fill="#10131c"/><rect x="17" y="12" width="2" height="1" fill="#ffffff"/><rect x="19" y="12" width="15" height="1" fill="#6d7484"/><rect x="34" y="12" width="5" height="1" fill="#ffffff"/><rect x="39" y="12" width="1" height="1" fill="#10131c"/><rect x="0" y="13" width="1" height="1" fill="#10131c"/><rect x="1" y="13" width="2" height="1" fill="#ffffff"/><rect x="3" y="13" width="1" height="1" fill="#10131c"/><rect x="4" y="13" width="2" height="1" fill="#ffffff"/><rect x="6" y="13" width="1" height="1" fill="#35529e"/><rect x="7" y="13" width="2" height="1" fill="#ffffff"/><rect x="9" y="13" width="1" height="1" fill="#35529e"/><rect x="10" y="13" width="6" height="1" fill="#ffffff"/><rect x="16" y="13" width="1" height="1" fill="#10131c"/><rect x="17" y="13" width="22" height="1" fill="#ffffff"/><rect x="39" y="13" width="1" height="1" fill="#10131c"/><rect x="0" y="14" width="1" height="1" fill="#10131c"/><rect x="1" y="14" width="2" height="1" fill="#ffffff"/><rect x="3" y="14" width="1" height="1" fill="#10131c"/><rect x="4" y="14" width="2" height="1" fill="#ffffff"/><rect x="6" y="14" width="1" height="1" fill="#35529e"/><rect x="7" y="14" width="2" height="1" fill="#ffffff"/><rect x="9" y="14" width="1" height="1" fill="#35529e"/><rect x="10" y="14" width="1" height="1" fill="#ffffff"/><rect x="11" y="14" width="1" height="1" fill="#e2574a"/><rect x="12" y="14" width="4" height="1" fill="#ffffff"/><rect x="16" y="14" width="1" height="1" fill="#10131c"/><rect x="17" y="14" width="2" height="1" fill="#ffffff"/><rect x="19" y="14" width="16" height="1" fill="#6d7484"/><rect x="35" y="14" width="4" height="1" fill="#ffffff"/><rect x="39" y="14" width="1" height="1" fill="#10131c"/><rect x="0" y="15" width="1" height="1" fill="#10131c"/><rect x="1" y="15" width="2" height="1" fill="#ffffff"/><rect x="3" y="15" width="1" height="1" fill="#10131c"/><rect x="4" y="15" width="12" height="1" fill="#35529e"/><rect x="16" y="15" width="1" height="1" fill="#10131c"/><rect x="17" y="15" width="22" height="1" fill="#ffffff"/><rect x="39" y="15" width="1" height="1" fill="#10131c"/><rect x="0" y="16" width="1" height="1" fill="#10131c"/><rect x="1" y="16" width="2" height="1" fill="#ffffff"/><rect x="3" y="16" width="1" height="1" fill="#10131c"/><rect x="4" y="16" width="12" height="1" fill="#35529e"/><rect x="16" y="16" width="1" height="1" fill="#10131c"/><rect x="17" y="16" width="10" height="1" fill="#ffffff"/><rect x="27" y="16" width="10" height="1" fill="#e2574a"/><rect x="37" y="16" width="2" height="1" fill="#ffffff"/><rect x="39" y="16" width="1" height="1" fill="#10131c"/><rect x="0" y="17" width="1" height="1" fill="#10131c"/><rect x="1" y="17" width="2" height="1" fill="#ffffff"/><rect x="3" y="17" width="1" height="1" fill="#10131c"/><rect x="4" y="17" width="12" height="1" fill="#35529e"/><rect x="16" y="17" width="1" height="1" fill="#10131c"/><rect x="17" y="17" width="10" height="1" fill="#ffffff"/><rect x="27" y="17" width="2" height="1" fill="#e2574a"/><rect x="29" y="17" width="6" height="1" fill="#ffffff"/><rect x="35" y="17" width="2" height="1" fill="#e2574a"/><rect x="37" y="17" width="2" height="1" fill="#ffffff"/><rect x="39" y="17" width="1" height="1" fill="#10131c"/><rect x="0" y="18" width="1" height="1" fill="#10131c"/><rect x="1" y="18" width="1" height="1" fill="#ffffff"/><rect x="2" y="18" width="1" height="1" fill="#d5d1c4"/><rect x="3" y="18" width="14" height="1" fill="#10131c"/><rect x="17" y="18" width="10" height="1" fill="#ffffff"/><rect x="27" y="18" width="10" height="1" fill="#e2574a"/><rect x="37" y="18" width="1" height="1" fill="#d5d1c4"/><rect x="38" y="18" width="1" height="1" fill="#ffffff"/><rect x="39" y="18" width="1" height="1" fill="#10131c"/><rect x="0" y="19" width="1" height="1" fill="#10131c"/><rect x="1" y="19" width="1" height="1" fill="#ffffff"/><rect x="2" y="19" width="1" height="1" fill="#d5d1c4"/><rect x="3" y="19" width="34" height="1" fill="#ffffff"/><rect x="37" y="19" width="1" height="1" fill="#d5d1c4"/><rect x="38" y="19" width="1" height="1" fill="#ffffff"/><rect x="39" y="19" width="1" height="1" fill="#10131c"/><rect x="0" y="20" width="1" height="1" fill="#10131c"/><rect x="1" y="20" width="1" height="1" fill="#ffffff"/><rect x="2" y="20" width="3" height="1" fill="#d5d1c4"/><rect x="5" y="20" width="30" height="1" fill="#ffffff"/><rect x="35" y="20" width="3" height="1" fill="#d5d1c4"/><rect x="38" y="20" width="1" height="1" fill="#ffffff"/><rect x="39" y="20" width="1" height="1" fill="#10131c"/><rect x="0" y="21" width="40" height="1" fill="#10131c"/></svg>