<svg xmlns="http://www.w3.org/2000/svg" viewBox="0 0 10 13" shape-rendering="crispEdges"><rect x="2" y="0" width="6" height="1" fill="#10131f"/><rect x="1" y="1" width="1" height="1" fill="#10131f"/><rect x="2" y="1" width="6" height="1" fill="#3b536e"/><rect x="8" y="1" width="1" height="1" fill="#10131f"/><rect x="0" y="2" width="1" height="9" fill="#10131f"/><rect x="9" y="2" width="1" height="9" fill="#10131f"/><rect x="1" y="2" width="8" height="1" fill="#2b3153"/><rect x="1" y="3" width="8" height="1" fill="#232946"/><rect x="1" y="4" width="8" height="1" fill="#10131f"/><rect x="1" y="5" width="8" height="1" fill="#3b536e"/><rect x="1" y="6" width="8" height="1" fill="#2b3153"/><rect x="1" y="7" width="8" height="1" fill="#232946"/><rect x="1" y="8" width="8" height="1" fill="#10131f"/><rect x="1" y="9" width="8" height="1" fill="#3b536e"/><rect x="1" y="10" width="8" height="1" fill="#2b3153"/><rect x="1" y="11" width="1" height="1" fill="#10131f"/><rect x="2" y="11" width="6" height="1" fill="#232946"/><rect x="8" y="11" width="1" height="1" fill="#10131f"/><rect x="2" y="12" width="6" height="1" fill="#10131f"/></svg>