<svg xmlns="http://www.w3.org/2000/svg" viewBox="0 0 26 18" shape-rendering="crispEdges"><rect x="0" y="1" width="10" height="16" fill="#1d3560"/><rect x="1" y="2" width="8" height="14" fill="#2d4f8f"/><rect x="4" y="4" width="3" height="1" fill="#d9e8ff"/><rect x="3" y="5" width="1" height="3" fill="#d9e8ff"/><rect x="7" y="5" width="1" height="3" fill="#d9e8ff"/><rect x="4" y="8" width="3" height="1" fill="#d9e8ff"/><rect x="2" y="10" width="1" height="2" fill="#d9e8ff"/><rect x="8" y="10" width="1" height="2" fill="#d9e8ff"/><rect x="3" y="11" width="5" height="1" fill="#d9e8ff"/><rect x="15" y="2" width="6" height="1" fill="#e8b84b"/><rect x="14" y="3" width="8" height="1" fill="#e8b84b"/><rect x="13" y="4" width="10" height="6" fill="#e8b84b"/><rect x="14" y="10" width="8" height="1" fill="#b07d24"/><rect x="15" y="11" width="6" height="1" fill="#b07d24"/><rect x="16" y="5" width="4" height="1" fill="#b07d24"/><rect x="15" y="6" width="1" height="2" fill="#b07d24"/><rect x="20" y="6" width="1" height="2" fill="#b07d24"/><rect x="16" y="8" width="4" height="1" fill="#b07d24"/><rect x="13" y="12" width="2" height="2" fill="#b07d24"/><rect x="14" y="12" width="1" height="1" fill="#241d33"/><rect x="13" y="11" width="1" height="1" fill="#241d33"/><rect x="22" y="12" width="1" height="2" fill="#b07d24"/><rect x="15" y="13" width="2" height="1" fill="#d9e8ff"/><rect x="17" y="14" width="2" height="1" fill="#d9e8ff"/><rect x="19" y="15" width="2" height="1" fill="#d9e8ff"/><rect x="21" y="16" width="1" height="1" fill="#d9e8ff"/></svg>
