<svg xmlns="http://www.w3.org/2000/svg" viewBox="0 0 12 15" shape-rendering="crispEdges"><rect x="1" y="0" width="10" height="1" fill="#33363f"/><rect x="0" y="1" width="1" height="1" fill="#33363f"/><rect x="1" y="1" width="10" height="1" fill="#f5cf3a"/><rect x="11" y="1" width="1" height="1" fill="#33363f"/><rect x="0" y="2" width="1" height="1" fill="#33363f"/><rect x="1" y="2" width="10" height="1" fill="#f5cf3a"/><rect x="11" y="2" width="1" height="1" fill="#33363f"/><rect x="0" y="3" width="1" height="1" fill="#33363f"/><rect x="1" y="3" width="10" height="1" fill="#ffffff"/><rect x="11" y="3" width="1" height="1" fill="#33363f"/><rect x="0" y="4" width="1" height="1" fill="#33363f"/><rect x="1" y="4" width="10" height="1" fill="#ffffff"/><rect x="11" y="4" width="1" height="1" fill="#33363f"/><rect x="0" y="5" width="1" height="1" fill="#33363f"/><rect x="1" y="5" width="3" height="1" fill="#ffffff"/><rect x="4" y="5" width="4" height="1" fill="#e8b48a"/><rect x="8" y="5" width="3" height="1" fill="#ffffff"/><rect x="11" y="5" width="1" height="1" fill="#33363f"/><rect x="0" y="6" width="1" height="1" fill="#33363f"/><rect x="1" y="6" width="2" height="1" fill="#ffffff"/><rect x="3" y="6" width="6" height="1" fill="#e8b48a"/><rect x="9" y="6" width="2" height="1" fill="#ffffff"/><rect x="11" y="6" width="1" height="1" fill="#33363f"/><rect x="0" y="7" width="1" height="1" fill="#33363f"/><rect x="1" y="7" width="2" height="1" fill="#ffffff"/><rect x="3" y="7" width="1" height="1" fill="#e8b48a"/><rect x="4" y="7" width="1" height="1" fill="#c98d63"/><rect x="5" y="7" width="1" height="1" fill="#e8b48a"/><rect x="6" y="7" width="1" height="1" fill="#c98d63"/><rect x="7" y="7" width="2" height="1" fill="#e8b48a"/><rect x="9" y="7" width="2" height="1" fill="#ffffff"/><rect x="11" y="7" width="1" height="1" fill="#33363f"/><rect x="0" y="8" width="1" height="1" fill="#33363f"/><rect x="1" y="8" width="2" height="1" fill="#ffffff"/><rect x="3" y="8" width="6" height="1" fill="#e8b48a"/><rect x="9" y="8" width="2" height="1" fill="#ffffff"/><rect x="11" y="8" width="1" height="1" fill="#33363f"/><rect x="0" y="9" width="1" height="1" fill="#33363f"/><rect x="1" y="9" width="3" height="1" fill="#ffffff"/><rect x="4" y="9" width="4" height="1" fill="#e8b48a"/><rect x="8" y="9" width="3" height="1" fill="#ffffff"/><rect x="11" y="9" width="1" height="1" fill="#33363f"/><rect x="0" y="10" width="1" height="1" fill="#33363f"/><rect x="1" y="10" width="4" height="1" fill="#ffffff"/><rect x="5" y="10" width="2" height="1" fill="#c98d63"/><rect x="7" y="10" width="4" height="1" fill="#ffffff"/><rect x="11" y="10" width="1" height="1" fill="#33363f"/><rect x="0" y="11" width="1" height="1" fill="#33363f"/><rect x="1" y="11" width="10" height="1" fill="#ffffff"/><rect x="11" y="11" width="1" height="1" fill="#33363f"/><rect x="0" y="12" width="1" height="1" fill="#33363f"/><rect x="1" y="12" width="1" height="1" fill="#ffffff"/><rect x="2" y="12" width="8" height="1" fill="#c9ced8"/><rect x="10" y="12" width="1" height="1" fill="#ffffff"/><rect x="11" y="12" width="1" height="1" fill="#33363f"/><rect x="0" y="13" width="1" height="1" fill="#33363f"/><rect x="1" y="13" width="1" height="1" fill="#ffffff"/><rect x="2" y="13" width="5" height="1" fill="#c9ced8"/><rect x="7" y="13" width="4" height="1" fill="#ffffff"/><rect x="11" y="13" width="1" height="1" fill="#33363f"/><rect x="1" y="14" width="10" height="1" fill="#33363f"/></svg>
