<svg xmlns="http://www.w3.org/2000/svg" viewBox="0 0 16 16" shape-rendering="crispEdges"><rect x="1" y="1" width="5" height="1" fill="#1f2430"/><rect x="10" y="1" width="5" height="1" fill="#1f2430"/><rect x="0" y="2" width="1" height="1" fill="#1f2430"/><rect x="1" y="2" width="5" height="1" fill="#f5f7fa"/><rect x="6" y="2" width="1" height="1" fill="#1f2430"/><rect x="9" y="2" width="1" height="1" fill="#1f2430"/><rect x="10" y="2" width="5" height="1" fill="#f5f7fa"/><rect x="15" y="2" width="1" height="1" fill="#1f2430"/><rect x="0" y="3" width="1" height="1" fill="#1f2430"/><rect x="1" y="3" width="1" height="1" fill="#f5f7fa"/><rect x="2" y="3" width="3" height="1" fill="#4a5380"/><rect x="5" y="3" width="1" height="1" fill="#f5f7fa"/><rect x="6" y="3" width="1" height="1" fill="#1f2430"/><rect x="9" y="3" width="1" height="1" fill="#1f2430"/><rect x="10" y="3" width="1" height="1" fill="#f5f7fa"/><rect x="11" y="3" width="3" height="1" fill="#e2504c"/><rect x="14" y="3" width="1" height="1" fill="#f5f7fa"/><rect x="15" y="3" width="1" height="1" fill="#1f2430"/><rect x="0" y="4" width="1" height="1" fill="#1f2430"/><rect x="1" y="4" width="5" height="1" fill="#f5f7fa"/><rect x="6" y="4" width="1" height="1" fill="#1f2430"/><rect x="9" y="4" width="1" height="1" fill="#1f2430"/><rect x="10" y="4" width="5" height="1" fill="#f5f7fa"/><rect x="15" y="4" width="1" height="1" fill="#1f2430"/><rect x="0" y="5" width="1" height="1" fill="#1f2430"/><rect x="1" y="5" width="1" height="1" fill="#f5f7fa"/><rect x="2" y="5" width="2" height="1" fill="#4a5380"/><rect x="4" y="5" width="2" height="1" fill="#f5f7fa"/><rect x="6" y="5" width="1" height="1" fill="#1f2430"/><rect x="9" y="5" width="1" height="1" fill="#1f2430"/><rect x="10" y="5" width="2" height="1" fill="#f5f7fa"/><rect x="12" y="5" width="2" height="1" fill="#e2504c"/><rect x="14" y="5" width="1" height="1" fill="#f5f7fa"/><rect x="15" y="5" width="1" height="1" fill="#1f2430"/><rect x="1" y="6" width="5" height="1" fill="#1f2430"/><rect x="10" y="6" width="5" height="1" fill="#1f2430"/><rect x="2" y="7" width="1" height="1" fill="#1f2430"/><rect x="3" y="7" width="1" height="1" fill="#f5f7fa"/><rect x="4" y="7" width="1" height="1" fill="#1f2430"/><rect x="11" y="7" width="1" height="1" fill="#1f2430"/><rect x="12" y="7" width="1" height="1" fill="#f5f7fa"/><rect x="13" y="7" width="1" height="1" fill="#1f2430"/><rect x="3" y="8" width="2" height="1" fill="#1f2430"/><rect x="11" y="8" width="2" height="1" fill="#1f2430"/><rect x="6" y="10" width="1" height="1" fill="#e2504c"/><rect x="10" y="10" width="1" height="1" fill="#e2504c"/><rect x="7" y="11" width="1" height="1" fill="#e2504c"/><rect x="9" y="11" width="1" height="1" fill="#e2504c"/><rect x="8" y="12" width="1" height="1" fill="#e2504c"/><rect x="7" y="13" width="1" height="1" fill="#e2504c"/><rect x="9" y="13" width="1" height="1" fill="#e2504c"/><rect x="6" y="14" width="1" height="1" fill="#e2504c"/><rect x="10" y="14" width="1" height="1" fill="#e2504c"/></svg>