<svg xmlns="http://www.w3.org/2000/svg" viewBox="0 0 10 10" shape-rendering="crispEdges"><rect x="1" y="0" width="8" height="1" fill="#2a2416"/><rect x="0" y="1" width="1" height="1" fill="#2a2416"/><rect x="1" y="1" width="8" height="1" fill="#ffd23e"/><rect x="9" y="1" width="1" height="1" fill="#2a2416"/><rect x="0" y="2" width="1" height="1" fill="#2a2416"/><rect x="1" y="2" width="8" height="1" fill="#ffd23e"/><rect x="4" y="2" width="2" height="1" fill="#2a2416"/><rect x="9" y="2" width="1" height="1" fill="#2a2416"/><rect x="0" y="3" width="1" height="1" fill="#2a2416"/><rect x="1" y="3" width="8" height="1" fill="#ffd23e"/><rect x="2" y="3" width="1" height="1" fill="#e0483f"/><rect x="3" y="3" width="4" height="1" fill="#2a2416"/><rect x="7" y="3" width="1" height="1" fill="#e0483f"/><rect x="9" y="3" width="1" height="1" fill="#2a2416"/><rect x="0" y="4" width="1" height="1" fill="#2a2416"/><rect x="1" y="4" width="8" height="1" fill="#ffd23e"/><rect x="2" y="4" width="1" height="1" fill="#e0483f"/><rect x="3" y="4" width="4" height="1" fill="#2a2416"/><rect x="7" y="4" width="1" height="1" fill="#e0483f"/><rect x="9" y="4" width="1" height="1" fill="#2a2416"/><rect x="0" y="5" width="1" height="1" fill="#2a2416"/><rect x="1" y="5" width="8" height="1" fill="#ffd23e"/><rect x="4" y="5" width="2" height="1" fill="#2a2416"/><rect x="9" y="5" width="1" height="1" fill="#2a2416"/><rect x="1" y="6" width="8" height="1" fill="#2a2416"/><rect x="4" y="7" width="2" height="1" fill="#7a828f"/><rect x="4" y="8" width="2" height="1" fill="#7a828f"/><rect x="3" y="9" width="4" height="1" fill="#7a828f"/></svg>
