<svg xmlns="http://www.w3.org/2000/svg" viewBox="0 0 24 11" shape-rendering="crispEdges"><rect x="0" y="0" width="22" height="1" fill="#1c2233"/><rect x="0" y="1" width="1" height="1" fill="#1c2233"/><rect x="1" y="1" width="20" height="1" fill="#d7dbe4"/><rect x="21" y="1" width="1" height="1" fill="#1c2233"/><rect x="0" y="2" width="1" height="1" fill="#1c2233"/><rect x="1" y="2" width="2" height="1" fill="#d7dbe4"/><rect x="3" y="2" width="1" height="1" fill="#565d6e"/><rect x="4" y="2" width="4" height="1" fill="#d7dbe4"/><rect x="8" y="2" width="1" height="1" fill="#565d6e"/><rect x="9" y="2" width="4" height="1" fill="#d7dbe4"/><rect x="13" y="2" width="1" height="1" fill="#565d6e"/><rect x="14" y="2" width="4" height="1" fill="#d7dbe4"/><rect x="18" y="2" width="1" height="1" fill="#565d6e"/><rect x="19" y="2" width="2" height="1" fill="#d7dbe4"/><rect x="21" y="2" width="2" height="1" fill="#1c2233"/><rect x="0" y="3" width="1" height="1" fill="#1c2233"/><rect x="1" y="3" width="21" height="1" fill="#d7dbe4"/><rect x="22" y="3" width="1" height="1" fill="#1c2233"/><rect x="0" y="4" width="23" height="1" fill="#1c2233"/><rect x="1" y="5" width="1" height="1" fill="#1c2233"/><rect x="2" y="5" width="5" height="1" fill="#565d6e"/><rect x="7" y="5" width="1" height="1" fill="#bfe3f2"/><rect x="8" y="5" width="7" height="1" fill="#565d6e"/><rect x="15" y="5" width="1" height="1" fill="#bfe3f2"/><rect x="16" y="5" width="6" height="1" fill="#565d6e"/><rect x="22" y="5" width="1" height="1" fill="#1c2233"/><rect x="1" y="6" width="1" height="1" fill="#1c2233"/><rect x="2" y="6" width="2" height="1" fill="#9aa2b2"/><rect x="4" y="6" width="1" height="1" fill="#bfe3f2"/><rect x="5" y="6" width="1" height="1" fill="#f0f2f7"/><rect x="6" y="6" width="5" height="1" fill="#9aa2b2"/><rect x="11" y="6" width="1" height="1" fill="#f0f2f7"/><rect x="12" y="6" width="1" height="1" fill="#bfe3f2"/><rect x="13" y="6" width="4" height="1" fill="#9aa2b2"/><rect x="17" y="6" width="1" height="1" fill="#bfe3f2"/><rect x="18" y="6" width="1" height="1" fill="#f0f2f7"/><rect x="19" y="6" width="4" height="1" fill="#9aa2b2"/><rect x="23" y="6" width="1" height="1" fill="#1c2233"/><rect x="1" y="7" width="1" height="1" fill="#1c2233"/><rect x="2" y="7" width="2" height="1" fill="#9aa2b2"/><rect x="4" y="7" width="1" height="1" fill="#f0f2f7"/><rect x="5" y="7" width="2" height="1" fill="#bfe3f2"/><rect x="7" y="7" width="4" height="1" fill="#9aa2b2"/><rect x="11" y="7" width="1" height="1" fill="#bfe3f2"/><rect x="12" y="7" width="1" height="1" fill="#f0f2f7"/><rect x="13" y="7" width="1" height="1" fill="#bfe3f2"/><rect x="14" y="7" width="3" height="1" fill="#9aa2b2"/><rect x="17" y="7" width="1" height="1" fill="#bfe3f2"/><rect x="18" y="7" width="1" height="1" fill="#f0f2f7"/><rect x="19" y="7" width="1" height="1" fill="#bfe3f2"/><rect x="20" y="7" width="3" height="1" fill="#9aa2b2"/><rect x="23" y="7" width="1" height="1" fill="#1c2233"/><rect x="2" y="8" width="1" height="1" fill="#1c2233"/><rect x="3" y="8" width="2" height="1" fill="#9aa2b2"/><rect x="5" y="8" width="1" height="1" fill="#565d6e"/><rect x="6" y="8" width="4" height="1" fill="#9aa2b2"/><rect x="10" y="8" width="1" height="1" fill="#565d6e"/><rect x="11" y="8" width="4" height="1" fill="#9aa2b2"/><rect x="15" y="8" width="1" height="1" fill="#565d6e"/><rect x="16" y="8" width="4" height="1" fill="#9aa2b2"/><rect x="20" y="8" width="1" height="1" fill="#565d6e"/><rect x="21" y="8" width="2" height="1" fill="#9aa2b2"/><rect x="23" y="8" width="1" height="1" fill="#1c2233"/><rect x="2" y="9" width="1" height="1" fill="#1c2233"/><rect x="3" y="9" width="3" height="1" fill="#9aa2b2"/><rect x="6" y="9" width="1" height="1" fill="#bfe3f2"/><rect x="7" y="9" width="1" height="1" fill="#f0f2f7"/><rect x="8" y="9" width="5" height="1" fill="#9aa2b2"/><rect x="13" y="9" width="1" height="1" fill="#f0f2f7"/><rect x="14" y="9" width="1" height="1" fill="#bfe3f2"/><rect x="15" y="9" width="4" height="1" fill="#9aa2b2"/><rect x="19" y="9" width="1" height="1" fill="#bfe3f2"/><rect x="20" y="9" width="1" height="1" fill="#f0f2f7"/><rect x="21" y="9" width="2" height="1" fill="#9aa2b2"/><rect x="23" y="9" width="1" height="1" fill="#1c2233"/><rect x="3" y="10" width="21" height="1" fill="#1c2233"/></svg>