<svg xmlns="http://www.w3.org/2000/svg" viewBox="0 0 22 22" shape-rendering="crispEdges"><rect x="2" y="0" width="18" height="1" fill="#1f2430"/><rect x="2" y="1" width="1" height="1" fill="#1f2430"/><rect x="3" y="1" width="16" height="1" fill="#3a4150"/><rect x="19" y="1" width="1" height="1" fill="#1f2430"/><rect x="2" y="2" width="1" height="1" fill="#1f2430"/><rect x="3" y="2" width="16" height="1" fill="#3a4150"/><rect x="19" y="2" width="1" height="1" fill="#1f2430"/><rect x="3" y="3" width="1" height="1" fill="#1f2430"/><rect x="4" y="3" width="14" height="1" fill="#3a4150"/><rect x="18" y="3" width="1" height="1" fill="#1f2430"/><rect x="4" y="4" width="1" height="1" fill="#1f2430"/><rect x="5" y="4" width="12" height="1" fill="#5b6472"/><rect x="17" y="4" width="1" height="1" fill="#1f2430"/><rect x="5" y="5" width="1" height="1" fill="#1f2430"/><rect x="6" y="5" width="10" height="1" fill="#5b6472"/><rect x="16" y="5" width="1" height="1" fill="#1f2430"/><rect x="6" y="6" width="10" height="1" fill="#1f2430"/><rect x="8" y="7" width="1" height="1" fill="#1f2430"/><rect x="9" y="7" width="4" height="1" fill="#9aa5b1"/><rect x="13" y="7" width="1" height="1" fill="#1f2430"/><rect x="8" y="8" width="1" height="1" fill="#1f2430"/><rect x="9" y="8" width="4" height="1" fill="#5b6472"/><rect x="13" y="8" width="1" height="1" fill="#1f2430"/><rect x="8" y="9" width="6" height="1" fill="#1f2430"/><rect x="7" y="10" width="1" height="1" fill="#1f2430"/><rect x="8" y="10" width="6" height="1" fill="#5b6472"/><rect x="14" y="10" width="1" height="1" fill="#1f2430"/><rect x="7" y="11" width="1" height="1" fill="#1f2430"/><rect x="8" y="11" width="6" height="1" fill="#5b6472"/><rect x="14" y="11" width="1" height="1" fill="#1f2430"/><rect x="7" y="12" width="1" height="1" fill="#1f2430"/><rect x="8" y="12" width="6" height="1" fill="#3a4150"/><rect x="14" y="12" width="1" height="1" fill="#1f2430"/><rect x="8" y="13" width="6" height="1" fill="#1f2430"/><rect x="9" y="14" width="1" height="1" fill="#1f2430"/><rect x="10" y="14" width="2" height="1" fill="#9aa5b1"/><rect x="12" y="14" width="1" height="1" fill="#1f2430"/><rect x="10" y="15" width="1" height="1" fill="#1f2430"/><rect x="11" y="15" width="2" height="1" fill="#9aa5b1"/><rect x="13" y="15" width="1" height="1" fill="#1f2430"/><rect x="11" y="16" width="1" height="1" fill="#1f2430"/><rect x="12" y="16" width="2" height="1" fill="#9aa5b1"/><rect x="14" y="16" width="1" height="1" fill="#1f2430"/><rect x="12" y="17" width="1" height="1" fill="#1f2430"/><rect x="13" y="17" width="2" height="1" fill="#f2c14e"/><rect x="15" y="17" width="1" height="1" fill="#1f2430"/><rect x="13" y="18" width="1" height="1" fill="#1f2430"/><rect x="14" y="18" width="2" height="1" fill="#f2c14e"/><rect x="16" y="18" width="1" height="1" fill="#1f2430"/><rect x="14" y="19" width="1" height="1" fill="#1f2430"/><rect x="15" y="19" width="2" height="1" fill="#f2c14e"/><rect x="17" y="19" width="1" height="1" fill="#1f2430"/><rect x="15" y="20" width="1" height="1" fill="#1f2430"/><rect x="16" y="20" width="2" height="1" fill="#c9902a"/><rect x="18" y="20" width="1" height="1" fill="#1f2430"/><rect x="16" y="21" width="3" height="1" fill="#1f2430"/></svg>